<svg width="129" height="43" viewBox="0 0 129 43" fill="none" xmlns="http://www.w3.org/2000/svg">
<path d="M40.7224 23.213C37.9682 23.213 36.0357 21.7827 35.914 19.3329H37.6487C37.7704 20.7936 38.6377 21.7827 40.6767 21.7827C42.4266 21.7827 42.9592 21.0219 42.9592 20.0328C42.9592 18.6481 41.894 18.4503 39.9159 17.9482C38.2117 17.4917 36.3401 16.9439 36.3401 14.8745C36.3401 12.9877 37.8008 11.9073 40.1441 11.9073C42.6244 11.9073 44.2373 13.1703 44.4047 15.3614H42.67C42.4875 14.0528 41.7419 13.3377 40.1594 13.3377C38.7899 13.3377 38.0899 13.8398 38.0899 14.7832C38.0899 16.0005 39.2312 16.2592 40.6311 16.6092C42.7309 17.1417 44.709 17.6439 44.709 19.9415C44.709 21.8131 43.4461 23.213 40.7224 23.213ZM48.3256 23V18.6481L44.4303 12.1204H46.241L49.1625 17.3243H49.193L52.1145 12.1204H53.91L50.0146 18.6481V23H48.3256ZM58.4357 23.213C55.6815 23.213 53.749 21.7827 53.6273 19.3329H55.362C55.4837 20.7936 56.351 21.7827 58.39 21.7827C60.1399 21.7827 60.6725 21.0219 60.6725 20.0328C60.6725 18.6481 59.6073 18.4503 57.6292 17.9482C55.925 17.4917 54.0534 16.9439 54.0534 14.8745C54.0534 12.9877 55.5141 11.9073 57.8574 11.9073C60.3377 11.9073 61.9506 13.1703 62.118 15.3614H60.3833C60.2007 14.0528 59.4551 13.3377 57.8727 13.3377C56.5032 13.3377 55.8032 13.8398 55.8032 14.7832C55.8032 16.0005 56.9445 16.2592 58.3444 16.6092C60.4442 17.1417 62.4223 17.6439 62.4223 19.9415C62.4223 21.8131 61.1594 23.213 58.4357 23.213ZM65.8397 23V13.5659H62.3247V12.1204H71.0437V13.5659H67.5287V23H65.8397ZM72.0409 23V12.1204H79.7403V13.5659H73.7147V16.6548H78.9948V18.1004H73.7147V21.5545H79.8925V23H72.0409ZM81.1576 23V12.1204H83.364L86.4985 20.6719H86.529L89.6787 12.1204H91.8851V23H90.2417V14.555H90.2113L87.2137 23H85.829L82.8314 14.555H82.801V23H81.1576ZM93.7366 23V12.1204H95.4104V23H93.7366ZM96.5205 23V21.5545L102.774 13.5963V13.5659H96.8248V12.1204H104.829V13.5659L98.5747 21.524V21.5545H104.981V23H96.5205ZM106.175 23V12.1204H113.874V13.5659H107.848V16.6548H113.129V18.1004H107.848V21.5545H114.026V23H106.175ZM115.291 23V12.1204H119.43C122.443 12.1204 124.269 14.068 124.269 17.5678C124.269 21.0675 122.473 23 119.461 23H115.291ZM116.965 21.5545H119.354C121.88 21.5545 122.534 19.6676 122.534 17.5678C122.534 15.4679 121.88 13.5659 119.354 13.5659H116.965V21.5545ZM40.7224 37.213C37.9682 37.213 36.0357 35.7827 35.914 33.3329H37.6487C37.7704 34.7936 38.6377 35.7827 40.6767 35.7827C42.4266 35.7827 42.9592 35.0219 42.9592 34.0328C42.9592 32.6481 41.894 32.4503 39.9159 31.9482C38.2117 31.4917 36.3401 30.9439 36.3401 28.8745C36.3401 26.9877 37.8008 25.9073 40.1441 25.9073C42.6244 25.9073 44.2373 27.1703 44.4047 29.3614H42.67C42.4875 28.0528 41.7419 27.3377 40.1594 27.3377C38.7899 27.3377 38.0899 27.8398 38.0899 28.7832C38.0899 30.0005 39.2312 30.2592 40.6311 30.6092C42.7309 31.1417 44.709 31.6439 44.709 33.9415C44.709 35.8131 43.4461 37.213 40.7224 37.213ZM44.6372 37L48.6848 26.1204H50.4955L54.5735 37H52.7475L51.8497 34.3828H47.3001L46.4023 37H44.6372ZM47.8022 32.9677H51.378L49.5977 27.6724H49.5673L47.8022 32.9677ZM55.3975 37V26.1204H57.0713V35.5545H62.5796V37H55.3975ZM63.578 37V26.1204H71.2775V27.5659H65.2518V30.6548H70.5319V32.1004H65.2518V35.5545H71.4296V37H63.578ZM76.7879 37.213C74.0338 37.213 72.1013 35.7827 71.9796 33.3329H73.7142C73.836 34.7936 74.7033 35.7827 76.7423 35.7827C78.4921 35.7827 79.0247 35.0219 79.0247 34.0328C79.0247 32.6481 77.9596 32.4503 75.9815 31.9482C74.2772 31.4917 72.4056 30.9439 72.4056 28.8745C72.4056 26.9877 73.8664 25.9073 76.2097 25.9073C78.69 25.9073 80.3029 27.1703 80.4703 29.3614H78.7356C78.553 28.0528 77.8074 27.3377 76.2249 27.3377C74.8554 27.3377 74.1555 27.8398 74.1555 28.7832C74.1555 30.0005 75.2967 30.2592 76.6966 30.6092C78.7965 31.1417 80.7746 31.6439 80.7746 33.9415C80.7746 35.8131 79.5116 37.213 76.7879 37.213Z" fill="white"/>
<path d="M19.8346 0L28.2505 4.85897V14.5769L8.41599 25.5096L0 20.6506V10.9327L19.8346 0Z" fill="white"/>
<path d="M19.8346 16.6499L28.2505 21.5089V31.2268L8.41599 42.1595L0 37.3005V27.5826L19.8346 16.6499Z" fill="white"/>
</svg>
